<svg width="250" height="250" viewBox="0 0 250 250" fill="none" xmlns="http://www.w3.org/2000/svg">
<g clip-path="url(#clip0_9_3)">
<path d="M53.2 200.2C50.5333 200.2 48.2667 199.267 46.4 197.4C44.6667 195.533 43.8 193.4 43.8 191C43.8 188.333 44.6667 186.133 46.4 184.4C48.2667 182.533 50.5333 181.6 53.2 181.6C55.6 181.6 57.6667 182.533 59.4 184.4C61.2667 186.133 62.2 188.333 62.2 191C62.2 193.4 61.2667 195.533 59.4 197.4C57.6667 199.267 55.6 200.2 53.2 200.2ZM88.9797 199C87.2464 199 85.7797 198.533 84.5797 197.6C83.3797 196.667 82.7797 195.467 82.7797 194V83.2C82.7797 76.4 84.3797 70.2667 87.5797 64.8C90.913 59.2 95.2464 54.7333 100.58 51.4C106.046 48.0667 111.98 46.4 118.38 46.4H123.38C125.246 46.4 126.646 47 127.58 48.2C128.513 49.4 128.98 50.8 128.98 52.4C128.98 53.8667 128.513 55.2 127.58 56.4C126.646 57.6 125.246 58.2 123.38 58.2H119.98C115.446 58.2 111.313 59.3333 107.58 61.6C103.98 63.8667 101.113 66.8 98.9797 70.4C96.9797 74 95.913 78 95.7797 82.4V104.4H124.38C125.846 104.4 126.98 104.933 127.78 106C128.58 107.067 128.98 108.333 128.98 109.8C128.98 111.133 128.58 112.4 127.78 113.6C126.98 114.667 125.846 115.2 124.38 115.2H95.7797V194C95.7797 195.467 95.113 196.667 93.7797 197.6C92.4464 198.533 90.8464 199 88.9797 199ZM168.731 200.4C162.465 200.4 156.931 199.6 152.131 198C147.465 196.4 143.798 194.533 141.131 192.4C138.598 190.133 137.331 188 137.331 186C137.331 185.067 137.531 184.2 137.931 183.4C138.331 182.467 138.865 181.667 139.531 181C140.331 180.333 141.131 180 141.931 180C143.398 180 144.998 180.8 146.731 182.4C148.598 183.867 151.131 185.4 154.331 187C157.665 188.6 162.331 189.4 168.331 189.4C175.931 189.4 181.265 188 184.331 185.2C187.398 182.267 188.931 178.933 188.931 175.2C188.931 170.8 187.731 167.4 185.331 165C183.065 162.467 179.998 160.533 176.131 159.2C172.398 157.867 168.398 156.6 164.131 155.4C159.998 154.2 155.998 152.733 152.131 151C148.398 149.267 145.331 146.8 142.931 143.6C140.665 140.267 139.531 135.867 139.531 130.4C139.531 126.133 140.598 121.933 142.731 117.8C144.865 113.667 148.198 110.2 152.731 107.4C157.398 104.6 163.531 103.2 171.131 103.2C175.531 103.2 179.798 103.667 183.931 104.6C188.065 105.533 191.398 106.8 193.931 108.4C196.598 109.867 197.931 111.467 197.931 113.2C197.931 113.733 197.665 114.6 197.131 115.8C196.731 116.867 196.131 117.8 195.331 118.6C194.531 119.4 193.598 119.8 192.531 119.8C191.465 119.8 189.998 119.333 188.131 118.4C186.398 117.467 184.131 116.533 181.331 115.6C178.531 114.667 175.198 114.2 171.331 114.2C166.531 114.2 162.665 115.067 159.731 116.8C156.798 118.533 154.665 120.6 153.331 123C151.998 125.4 151.331 127.733 151.331 130C151.331 133.733 152.531 136.6 154.931 138.6C157.331 140.6 160.398 142.267 164.131 143.6C167.998 144.8 171.998 146 176.131 147.2C180.398 148.267 184.398 149.8 188.131 151.8C191.998 153.8 195.065 156.6 197.331 160.2C199.731 163.8 200.931 168.6 200.931 174.6C200.931 182.467 198.131 188.733 192.531 193.4C186.931 198.067 178.998 200.4 168.731 200.4Z" fill="white"/>
</g>
<defs>
<clipPath id="clip0_9_3">
<rect width="250" height="250" rx="30" fill="white"/>
</clipPath>
</defs>
</svg>
